<svg width="1415" height="175" viewBox="0 0 1415 175" fill="none" xmlns="http://www.w3.org/2000/svg">
<g clip-path="url(#clip0)">
<path d="M246.565 38.7025C212.948 38.7025 185.696 62.737 185.696 92.3849C185.696 122.033 212.948 146.067 246.565 146.067C280.183 146.067 307.435 122.033 307.435 92.3849C307.435 62.737 280.183 38.7025 246.565 38.7025Z" fill="#E84292"/>
<path d="M1050.04 63.2435C1016.43 63.2435 989.174 87.278 989.174 116.926C989.174 146.574 1016.43 170.608 1050.04 170.608C1083.66 170.608 1110.91 146.574 1110.91 116.926C1110.91 87.278 1083.66 63.2435 1050.04 63.2435Z" fill="#E84292"/>
<path d="M646.565 44.8383C612.948 44.8383 585.696 68.8727 585.696 98.5207C585.696 128.169 612.948 152.203 646.565 152.203C680.183 152.203 707.435 128.169 707.435 98.5207C707.435 68.8727 680.183 44.8383 646.565 44.8383Z" fill="#E84292"/>
<path d="M1436.13 66.3115C1419.99 66.3115 1404.51 71.9672 1393.09 82.0346C1381.67 92.1021 1375.26 105.756 1375.26 119.994C1375.26 134.231 1381.67 147.886 1393.09 157.953C1404.51 168.021 1419.99 173.676 1436.13 173.676V119.994V66.3115Z" fill="#E84292"/>
<path d="M88.3042 167.541C126.724 167.541 157.869 140.073 157.869 106.189C157.869 72.3058 126.724 44.8379 88.3042 44.8379C49.8844 44.8379 18.739 72.3058 18.739 106.189C18.739 140.073 49.8844 167.541 88.3042 167.541Z" fill="#E84292"/>
<path d="M891.783 167.541C930.202 167.541 961.348 140.073 961.348 106.189C961.348 72.3058 930.202 44.8379 891.783 44.8379C853.363 44.8379 822.217 72.3058 822.217 106.189C822.217 140.073 853.363 167.541 891.783 167.541Z" fill="#E84292"/>
<path d="M488.304 173.675C526.724 173.675 557.87 146.207 557.87 112.324C557.87 78.4406 526.724 50.9727 488.304 50.9727C449.885 50.9727 418.739 78.4406 418.739 112.324C418.739 146.207 449.885 173.675 488.304 173.675Z" fill="#E84292"/>
<path d="M1291.78 173.675C1330.2 173.675 1361.35 146.207 1361.35 112.324C1361.35 78.4406 1330.2 50.9727 1291.78 50.9727C1253.36 50.9727 1222.22 78.4406 1222.22 112.324C1222.22 146.207 1253.36 173.675 1291.78 173.675Z" fill="#E84292"/>
<path d="M20.4783 136.865C44.4906 136.865 63.9565 119.698 63.9565 98.5204C63.9565 77.3432 44.4906 60.1758 20.4783 60.1758C-3.53412 60.1758 -23 77.3432 -23 98.5204C-23 119.698 -3.53412 136.865 20.4783 136.865Z" fill="#BEDE14"/>
<path d="M823.957 136.865C847.969 136.865 867.435 119.698 867.435 98.5204C867.435 77.3432 847.969 60.1758 823.957 60.1758C799.944 60.1758 780.478 77.3432 780.478 98.5204C780.478 119.698 799.944 136.865 823.957 136.865Z" fill="#BEDE14"/>
<path d="M420.478 143.001C444.491 143.001 463.957 125.833 463.957 104.656C463.957 83.479 444.491 66.3115 420.478 66.3115C396.466 66.3115 377 83.479 377 104.656C377 125.833 396.466 143.001 420.478 143.001Z" fill="#BEDE14"/>
<path d="M1223.96 127.662C1247.97 127.662 1267.43 110.494 1267.43 89.3172C1267.43 68.1401 1247.97 50.9727 1223.96 50.9727C1199.94 50.9727 1180.48 68.1401 1180.48 89.3172C1180.48 110.494 1199.94 127.662 1223.96 127.662Z" fill="#BEDE14"/>
<path d="M171.783 152.203C210.202 152.203 241.348 124.735 241.348 90.8513C241.348 56.9679 210.202 29.5 171.783 29.5C133.363 29.5 102.217 56.9679 102.217 90.8513C102.217 124.735 133.363 152.203 171.783 152.203Z" fill="#BEDE14"/>
<path d="M223.957 121.527C252.771 121.527 276.131 100.926 276.131 75.5135C276.131 50.101 252.771 29.5 223.957 29.5C195.142 29.5 171.783 50.101 171.783 75.5135C171.783 100.926 195.142 121.527 223.957 121.527Z" fill="#01B6E2"/>
<path d="M975.261 152.203C1013.68 152.203 1044.83 124.735 1044.83 90.8513C1044.83 56.9679 1013.68 29.5 975.261 29.5C936.841 29.5 905.696 56.9679 905.696 90.8513C905.696 124.735 936.841 152.203 975.261 152.203Z" fill="#BEDE14"/>
<path d="M1027.43 121.527C1056.25 121.527 1079.61 100.926 1079.61 75.5135C1079.61 50.101 1056.25 29.5 1027.43 29.5C998.62 29.5 975.261 50.101 975.261 75.5135C975.261 100.926 998.62 121.527 1027.43 121.527Z" fill="#01B6E2"/>
<path d="M571.783 158.338C610.202 158.338 641.348 130.871 641.348 96.9871C641.348 63.1037 610.202 35.6357 571.783 35.6357C533.363 35.6357 502.217 63.1037 502.217 96.9871C502.217 130.871 533.363 158.338 571.783 158.338Z" fill="#BEDE14"/>
<path d="M623.957 127.663C652.771 127.663 676.131 107.062 676.131 81.6493C676.131 56.2367 652.771 35.6357 623.957 35.6357C595.142 35.6357 571.783 56.2367 571.783 81.6493C571.783 107.062 595.142 127.663 623.957 127.663Z" fill="#01B6E2"/>
<path d="M1364.83 158.338C1403.25 158.338 1434.39 130.871 1434.39 96.9871C1434.39 63.1037 1403.25 35.6357 1364.83 35.6357C1326.41 35.6357 1295.26 63.1037 1295.26 96.9871C1295.26 130.871 1326.41 158.338 1364.83 158.338Z" fill="#BEDE14"/>
<path d="M1437.87 112.325C1424.03 112.325 1410.76 107.477 1400.98 98.8478C1391.19 90.2188 1385.7 78.5148 1385.7 66.3114C1385.7 54.108 1391.19 42.404 1400.98 33.7749C1410.76 25.1458 1424.03 20.2979 1437.87 20.2979V66.3114V112.325Z" fill="#01B6E2"/>
<path d="M-5.60864 -53.3242C12.8412 -53.3242 30.5354 -46.8604 43.5813 -35.3548C56.6275 -23.8492 63.9566 -8.24417 63.9566 8.02713C63.9566 24.2984 56.6275 39.9035 43.5813 51.409C30.5354 62.9148 12.8412 69.3785 -5.60863 69.3785L-5.60864 8.02713L-5.60864 -53.3242Z" fill="#01B6E2"/>
<path d="M797.87 -53.3242C816.318 -53.3242 834.012 -46.8604 847.059 -35.3548C860.106 -23.8492 867.435 -8.24417 867.435 8.02713C867.435 24.2984 860.106 39.9035 847.059 51.409C834.012 62.9148 816.318 69.3785 797.87 69.3785V8.02713V-53.3242Z" fill="#01B6E2"/>
<path d="M394.391 -47.1885C412.84 -47.1885 430.534 -40.7247 443.581 -29.2191C456.628 -17.7134 463.957 -2.10842 463.957 14.1629C463.957 30.4342 456.628 46.0392 443.581 57.5447C430.534 69.0506 412.84 75.5142 394.391 75.5142V14.1629V-47.1885Z" fill="#01B6E2"/>
<path d="M50.0435 14.1628C78.8584 14.1628 102.217 -6.43819 102.217 -31.8507C102.217 -57.2633 78.8584 -77.8643 50.0435 -77.8643C21.2287 -77.8643 -2.13037 -57.2633 -2.13037 -31.8507C-2.13037 -6.43819 21.2287 14.1628 50.0435 14.1628Z" fill="#E84292"/>
<path d="M853.522 14.1628C882.337 14.1628 905.696 -6.43819 905.696 -31.8507C905.696 -57.2633 882.337 -77.8643 853.522 -77.8643C824.707 -77.8643 801.348 -57.2633 801.348 -31.8507C801.348 -6.43819 824.707 14.1628 853.522 14.1628Z" fill="#E84292"/>
<path d="M450.044 20.2975C478.858 20.2975 502.217 -0.303429 502.217 -25.716C502.217 -51.1285 478.858 -71.7295 450.044 -71.7295C421.229 -71.7295 397.87 -51.1285 397.87 -25.716C397.87 -0.303429 421.229 20.2975 450.044 20.2975Z" fill="#E84292"/>
<path d="M1253.52 20.2975C1282.34 20.2975 1305.7 -0.303429 1305.7 -25.716C1305.7 -51.1285 1282.34 -71.7295 1253.52 -71.7295C1224.71 -71.7295 1201.35 -51.1285 1201.35 -25.716C1201.35 -0.303429 1224.71 20.2975 1253.52 20.2975Z" fill="#01B6E2"/>
<path d="M62.2173 106.189C86.2297 106.189 105.696 89.0217 105.696 67.8446C105.696 46.6675 86.2297 29.5 62.2173 29.5C38.2049 29.5 18.739 46.6675 18.739 67.8446C18.739 89.0217 38.2049 106.189 62.2173 106.189Z" fill="#FFCC00"/>
<path d="M865.696 106.189C889.708 106.189 909.174 89.0217 909.174 67.8446C909.174 46.6675 889.708 29.5 865.696 29.5C841.683 29.5 822.217 46.6675 822.217 67.8446C822.217 89.0217 841.683 106.189 865.696 106.189Z" fill="#FFCC00"/>
<path d="M462.218 112.325C486.23 112.325 505.696 95.1575 505.696 73.9803C505.696 52.8032 486.23 35.6357 462.218 35.6357C438.205 35.6357 418.739 52.8032 418.739 73.9803C418.739 95.1575 438.205 112.325 462.218 112.325Z" fill="#FFCC00"/>
<path d="M1265.7 112.325C1289.71 112.325 1309.17 95.1575 1309.17 73.9803C1309.17 52.8032 1289.71 35.6357 1265.7 35.6357C1241.68 35.6357 1222.22 52.8032 1222.22 73.9803C1222.22 95.1575 1241.68 112.325 1265.7 112.325Z" fill="#FFCC00"/>
<path d="M116.13 75.5142C154.55 75.5142 185.696 48.0463 185.696 14.1629C185.696 -19.7205 154.55 -47.1885 116.13 -47.1885C77.7106 -47.1885 46.5652 -19.7205 46.5652 14.1629C46.5652 48.0463 77.7106 75.5142 116.13 75.5142Z" fill="#F98D3A"/>
<path d="M919.609 75.5142C958.028 75.5142 989.174 48.0463 989.174 14.1629C989.174 -19.7205 958.028 -47.1885 919.609 -47.1885C881.189 -47.1885 850.043 -19.7205 850.043 14.1629C850.043 48.0463 881.189 75.5142 919.609 75.5142Z" fill="#F98D3A"/>
<path d="M516.13 81.649C554.55 81.649 585.696 54.1811 585.696 20.2976C585.696 -13.5858 554.55 -41.0537 516.13 -41.0537C477.711 -41.0537 446.565 -13.5858 446.565 20.2976C446.565 54.1811 477.711 81.649 516.13 81.649Z" fill="#F98D3A"/>
<path d="M1337 84.7164C1375.42 84.7164 1406.57 57.2484 1406.57 23.365C1406.57 -10.5184 1375.42 -37.9863 1337 -37.9863C1298.58 -37.9863 1267.43 -10.5184 1267.43 23.365C1267.43 57.2484 1298.58 84.7164 1337 84.7164Z" fill="#F98D3A"/>
<path d="M201.348 44.8375C234.965 44.8375 262.217 20.8031 262.217 -8.84491C262.217 -38.4929 234.965 -62.5273 201.348 -62.5273C167.73 -62.5273 140.478 -38.4929 140.478 -8.84491C140.478 20.8031 167.73 44.8375 201.348 44.8375Z" fill="#E84292"/>
<path d="M1004.83 44.8375C1038.44 44.8375 1065.7 20.8031 1065.7 -8.84491C1065.7 -38.4929 1038.44 -62.5273 1004.83 -62.5273C971.209 -62.5273 943.957 -38.4929 943.957 -8.84491C943.957 20.8031 971.209 44.8375 1004.83 44.8375Z" fill="#E84292"/>
<path d="M601.348 41.7701C634.965 41.7701 662.217 17.7357 662.217 -11.9123C662.217 -41.5603 634.965 -65.5947 601.348 -65.5947C567.731 -65.5947 540.478 -41.5603 540.478 -11.9123C540.478 17.7357 567.731 41.7701 601.348 41.7701Z" fill="#E84292"/>
<path d="M1439.61 41.7701C1423.47 41.7701 1407.98 36.1144 1396.57 26.047C1385.15 15.9795 1378.74 2.3252 1378.74 -11.9123C1378.74 -26.1498 1385.15 -39.8041 1396.57 -49.8715C1407.98 -59.9389 1423.47 -65.5947 1439.61 -65.5947V-11.9123V41.7701Z" fill="#E84292"/>
<path d="M359.609 -83.9996C321.189 -83.9996 290.043 -56.5316 290.043 -22.6482C290.043 11.2352 321.189 38.7031 359.609 38.7031C398.028 38.7031 429.174 11.2352 429.174 -22.6482C429.174 -56.5316 398.028 -83.9996 359.609 -83.9996Z" fill="#01B6E2"/>
<path d="M1163.09 -83.9996C1124.67 -83.9996 1093.52 -56.5316 1093.52 -22.6482C1093.52 11.2352 1124.67 38.7031 1163.09 38.7031C1201.51 38.7031 1232.65 11.2352 1232.65 -22.6482C1232.65 -56.5316 1201.51 -83.9996 1163.09 -83.9996Z" fill="#F98D3A"/>
<path d="M759.609 -77.8648C721.189 -77.8648 690.043 -50.3969 690.043 -16.5135C690.043 17.37 721.189 44.8379 759.609 44.8379C798.028 44.8379 829.174 17.37 829.174 -16.5135C829.174 -50.3969 798.028 -77.8648 759.609 -77.8648Z" fill="#01B6E2"/>
<path d="M427.435 -53.324C403.422 -53.324 383.957 -36.1565 383.957 -14.9794C383.957 6.19777 403.422 23.3652 427.435 23.3652C451.447 23.3652 470.913 6.19777 470.913 -14.9794C470.913 -36.1565 451.447 -53.324 427.435 -53.324Z" fill="#BEDE14"/>
<path d="M827.435 -47.1892C803.422 -47.1892 783.957 -30.0217 783.957 -8.8446C783.957 12.3325 803.422 29.5 827.435 29.5C851.447 29.5 870.913 12.3325 870.913 -8.8446C870.913 -30.0217 851.447 -47.1892 827.435 -47.1892Z" fill="#BEDE14"/>
<path d="M276.13 -68.6617C237.711 -68.6617 206.565 -41.1937 206.565 -7.31033C206.565 26.5731 237.711 54.041 276.13 54.041C314.55 54.041 345.696 26.5731 345.696 -7.31033C345.696 -41.1937 314.55 -68.6617 276.13 -68.6617Z" fill="#BEDE14"/>
<path d="M1079.61 -68.6617C1041.19 -68.6617 1010.04 -41.1937 1010.04 -7.31033C1010.04 26.5731 1041.19 54.041 1079.61 54.041C1118.03 54.041 1149.17 26.5731 1149.17 -7.31033C1149.17 -41.1937 1118.03 -68.6617 1079.61 -68.6617Z" fill="#BEDE14"/>
<path d="M676.13 -62.5269C637.711 -62.5269 606.565 -35.059 606.565 -1.17557C606.565 32.7078 637.711 60.1758 676.13 60.1758C714.55 60.1758 745.696 32.7078 745.696 -1.17557C745.696 -35.059 714.55 -62.5269 676.13 -62.5269Z" fill="#BEDE14"/>
<path d="M397.87 69.3782C369.055 69.3782 345.696 89.9792 345.696 115.392C345.696 140.804 369.055 161.405 397.87 161.405C426.684 161.405 450.043 140.804 450.043 115.392C450.043 89.9792 426.684 69.3782 397.87 69.3782Z" fill="#01B6E2"/>
<path d="M1201.35 69.3782C1172.53 69.3782 1149.17 89.9792 1149.17 115.392C1149.17 140.804 1172.53 161.405 1201.35 161.405C1230.16 161.405 1253.52 140.804 1253.52 115.392C1253.52 89.9792 1230.16 69.3782 1201.35 69.3782Z" fill="#01B6E2"/>
<path d="M797.87 75.514C769.055 75.514 745.696 96.115 745.696 121.528C745.696 146.94 769.055 167.541 797.87 167.541C826.684 167.541 850.043 146.94 850.043 121.528C850.043 96.115 826.684 75.514 797.87 75.514Z" fill="#01B6E2"/>
<path d="M385.696 -22.6482C361.683 -22.6482 342.217 -5.48071 342.217 15.6964C342.217 36.8736 361.683 54.041 385.696 54.041C409.708 54.041 429.174 36.8736 429.174 15.6964C429.174 -5.48071 409.708 -22.6482 385.696 -22.6482Z" fill="#FFCC00"/>
<path d="M785.696 -16.5134C761.683 -16.5134 742.217 0.654041 742.217 21.8312C742.217 43.0083 761.683 60.1758 785.696 60.1758C809.708 60.1758 829.174 43.0083 829.174 21.8312C829.174 0.654041 809.708 -16.5134 785.696 -16.5134Z" fill="#FFCC00"/>
<path d="M331.783 8.02676C293.363 8.02676 262.217 35.4947 262.217 69.3781C262.217 103.262 293.363 130.729 331.783 130.729C370.202 130.729 401.348 103.262 401.348 69.3781C401.348 35.4947 370.202 8.02676 331.783 8.02676Z" fill="#F98D3A"/>
<path d="M731.783 14.1625C693.363 14.1625 662.217 41.6305 662.217 75.5139C662.217 109.397 693.363 136.865 731.783 136.865C770.202 136.865 801.348 109.397 801.348 75.5139C801.348 41.6305 770.202 14.1625 731.783 14.1625Z" fill="#F98D3A"/>
<path d="M323.087 90.8518C299.075 90.8518 279.609 108.019 279.609 129.196C279.609 150.374 299.075 167.541 323.087 167.541C347.099 167.541 366.565 150.374 366.565 129.196C366.565 108.019 347.099 90.8518 323.087 90.8518Z" fill="#FFCC00"/>
<path d="M1126.57 90.8518C1102.55 90.8518 1083.09 108.019 1083.09 129.196C1083.09 150.374 1102.55 167.541 1126.57 167.541C1150.58 167.541 1170.04 150.374 1170.04 129.196C1170.04 108.019 1150.58 90.8518 1126.57 90.8518Z" fill="#FFCC00"/>
<path d="M723.087 96.9866C699.075 96.9866 679.609 114.154 679.609 135.331C679.609 156.508 699.075 173.676 723.087 173.676C747.099 173.676 766.565 156.508 766.565 135.331C766.565 114.154 747.099 96.9866 723.087 96.9866Z" fill="#FFCC00"/>
<path d="M1150.23 30.476C1142.73 17.9167 1140.4 3.45283 1143.64 -10.4509C1146.88 -24.3546 1155.48 -36.838 1167.99 -45.7741C1180.49 -54.7102 1196.12 -59.5461 1212.21 -59.4578C1228.31 -59.3695 1243.87 -54.3624 1256.25 -45.2898C1268.62 -36.2171 1277.05 -23.6402 1280.1 -9.70213C1283.14 4.23598 1280.6 18.6732 1272.93 31.1493C1265.25 43.6254 1252.91 53.3686 1238.01 58.7187C1223.1 64.0686 1206.55 64.6947 1191.17 60.4899L1211.78 1.89236L1150.23 30.476Z" fill="#E84292"/>
<path d="M1189.17 -22.6482C1165.16 -22.6482 1145.7 -5.48071 1145.7 15.6964C1145.7 36.8736 1165.16 54.041 1189.17 54.041C1213.19 54.041 1232.65 36.8736 1232.65 15.6964C1232.65 -5.48071 1213.19 -22.6482 1189.17 -22.6482Z" fill="#FFCC00"/>
<path d="M1135.26 8.02676C1096.84 8.02676 1065.7 35.4947 1065.7 69.3781C1065.7 103.262 1096.84 130.729 1135.26 130.729C1173.68 130.729 1204.83 103.262 1204.83 69.3781C1204.83 35.4947 1173.68 8.02676 1135.26 8.02676Z" fill="#F98D3A"/>
<path d="M1378.74 1.89237C1397.95 1.89237 1413.52 -11.8416 1413.52 -28.7833C1413.52 -45.725 1397.95 -59.459 1378.74 -59.459C1359.53 -59.459 1343.96 -45.725 1343.96 -28.7833C1343.96 -11.8416 1359.53 1.89237 1378.74 1.89237Z" fill="#BEDE14"/>
</g>
<defs>
<clipPath id="clip0">
<rect width="1415" height="175" fill="white"/>
</clipPath>
</defs>
</svg>
